<svg id="Layer_1" xmlns="http://www.w3.org/2000/svg" viewBox="0 0 485.82 330.37"><defs><style>.cls-1{fill:#205c2e;}</style></defs><title>Wikimania2019_icon</title><path class="cls-1" d="M101,256.56c53.44,78.12,126.28,76.54,155.64,72.09-31.9-6.57-69.7-25-100.89-70.61C102.29,179.92,29.44,181.51.08,186,32,192.52,69.79,211,101,256.56Z"/><path class="cls-1" d="M157.34,125.91C293.09,131.06,338.87,40.11,352.42,0,323,33.25,274.42,63,195.2,60,59.48,54.84,13.69,145.75.13,185.87l0,0C29.58,152.62,78.16,122.92,157.34,125.91Z"/><path class="cls-1" d="M.11,185.94c53.4-11.08,123.32-5.77,200,51.11,131.55,97.53,243.09,43.47,285.66,15.09-53.41,11.11-123.38,5.83-200.16-51.09-131.39-97.4-242.81-43.6-285.5-15.2l0,0L0,186H.11Z"/></svg>