<svg xmlns="http://www.w3.org/2000/svg" viewBox="0 0 90 90"><defs><style>.cls-1{fill:#ffa400;}.cls-2{fill:#e6e6e6;}.cls-3{fill:#404041;}.cls-4{fill:#fff;}.cls-5{fill:#2b2b2b;}</style></defs><title>penguin</title><g id="penguin"><path class="cls-1" d="M51.86,28.64a7.39,7.39,0,0,1,5.32-8l.6-.18,1.67,0,13.62.68a1.67,1.67,0,0,1,1,3L61,34.2a7.41,7.41,0,0,1-1.78.6h0A7.22,7.22,0,0,1,51.86,28.64Z"/><path class="cls-2" d="M61.25,42.32,61,35.87h0l.22,6.46c2.54,3,14.58,18.1,14.58,37.6q0,1,0,1.94A3.33,3.33,0,0,1,72.44,85H17.83c0-3.79,23.44-9.91,23.44-19.73C41.28,48.63,54.64,43.73,61.25,42.32Z"/><path class="cls-3" d="M61,34.2c-3.85.13-7.43-.9-8-5.12a7.93,7.93,0,0,1,5.73-8.4l.64-.19A23.34,23.34,0,0,0,30.92,5.9,23,23,0,0,0,14.25,28.15v.12c0,2.11-.19,33.58,0,53.46,0,1.82,2,3.26,3.79,3.26h3.42A19.77,19.77,0,0,0,41.28,65.27h0c0-16.65,13.36-21.54,20-23Z"/><path class="cls-4" d="M33.86,24.17a6.7,6.7,0,1,0,6.7-6.67A6.68,6.68,0,0,0,33.86,24.17Zm2.91,0a3.79,3.79,0,1,1,3.79,3.77A3.78,3.78,0,0,1,36.77,24.17Z"/><ellipse class="cls-5" cx="40.56" cy="24.17" rx="3.79" ry="3.77"/></g></svg>